<svg width="106" height="50" viewBox="0 0 106 50" fill="none" xmlns="http://www.w3.org/2000/svg">
<path d="M33.0115 23.7534V0.707861H34.2625V4.33318C34.4102 4.17259 34.5467 4.00198 34.671 3.82258C35.1821 2.76146 35.9852 1.86804 36.986 1.24705C37.9868 0.626062 39.1439 0.303227 40.3217 0.316391C43.1726 0.23129 45.4874 1.28655 46.849 3.82258C47.7154 5.398 48.1922 7.15787 48.2395 8.95517C48.2869 10.7525 47.9035 12.535 47.1213 14.1539C45.8533 16.9963 42.7216 18.409 39.3686 17.8899C38.3251 17.801 37.3206 17.4523 36.4465 16.8755C35.5724 16.2987 34.8567 15.5123 34.3646 14.5879V23.7534H33.0115ZM34.2625 8.86059C34.3731 9.98393 34.4157 10.7839 34.5433 11.5668C35.0369 14.6475 36.8581 16.4772 39.7175 16.8091C41.0601 17.0298 42.4377 16.778 43.6155 16.0968C44.7934 15.4156 45.6985 14.347 46.1767 13.0731C46.7262 11.7629 46.9906 10.3507 46.9525 8.93039C46.9143 7.51009 46.5745 6.11415 45.9554 4.83528C45.445 3.69356 44.5769 2.74892 43.4823 2.14404C42.3877 1.53915 41.1259 1.30688 39.8877 1.48228C38.7251 1.56652 37.6176 2.01091 36.7193 2.75368C35.821 3.49645 35.1764 4.50067 34.8752 5.62673C34.6087 6.69194 34.4041 7.7717 34.2625 8.86059Z" fill="white"/>
<path d="M73.7582 11.9922C73.5686 13.6148 72.7962 15.1133 71.5846 16.2091C70.373 17.3048 68.8047 17.9233 67.1713 17.9494C61.929 18.2132 59.4696 14.7325 59.0782 10.7157C58.8064 8.53439 59.1606 6.32077 60.0994 4.33311C60.7531 2.96969 61.8238 1.84969 63.1564 1.1352C64.4889 0.420712 66.0143 0.148817 67.5117 0.35887C68.9353 0.479525 70.2848 1.04496 71.3692 1.9751C72.4536 2.90524 73.2179 4.15295 73.5539 5.54155C73.8203 6.80624 74.0163 8.08473 74.1411 9.37112H60.3632C60.1079 13.0135 62.0652 15.941 64.8395 16.6473C68.2946 17.4983 71.2477 16.0005 72.3199 12.7156C72.5582 11.8731 72.9923 11.754 73.7582 11.9922ZM60.3632 8.20523H72.6774C72.6008 4.3246 70.1839 1.51625 66.9075 1.4737C63.1971 1.41413 60.5249 4.12036 60.3632 8.20523Z" fill="white"/>
<path d="M76.2941 12.0774H77.5025C77.5472 12.9666 77.8361 13.8263 78.3376 14.5619C78.839 15.2976 79.5336 15.8808 80.3449 16.2474C81.3637 16.7058 82.4729 16.9286 83.5897 16.8992C84.7066 16.8697 85.8024 16.5887 86.7956 16.0772C87.3369 15.8331 87.7903 15.429 88.0946 14.9192C88.399 14.4094 88.5397 13.8185 88.4976 13.2263C88.5288 12.6551 88.3728 12.0893 88.0534 11.6147C87.7339 11.1402 87.2685 10.7827 86.7275 10.5966C85.4 10.103 83.9873 9.8307 82.6341 9.39669C81.2263 8.99576 79.8496 8.49231 78.5152 7.89039C76.3366 6.82662 76.2005 2.68218 78.6684 1.37161C79.9321 0.658491 81.3543 0.273202 82.8051 0.250904C84.256 0.228606 85.6893 0.570009 86.9743 1.24396C87.7528 1.67417 88.3816 2.33145 88.7769 3.12817C89.1722 3.92489 89.3152 4.82318 89.187 5.70328H88.1487C88.1487 5.65222 88.0551 5.60967 88.0551 5.55861C87.9275 2.24816 85.1532 1.22694 82.1746 1.51628C81.2854 1.62596 80.4218 1.88793 79.6216 2.29071C79.1408 2.51057 78.7401 2.87427 78.4749 3.33158C78.2096 3.78889 78.0929 4.31726 78.1408 4.84375C78.1423 5.37048 78.3066 5.88386 78.6113 6.31351C78.9161 6.74316 79.3462 7.06804 79.8428 7.24362C81.1534 7.72018 82.5235 8.02655 83.8681 8.401C84.9489 8.69885 86.0723 8.89459 87.119 9.25201C87.8578 9.49419 88.5056 9.95504 88.9767 10.5735C89.4478 11.1921 89.72 11.939 89.7571 12.7156C89.8835 13.5665 89.7385 14.4356 89.3428 15.1994C88.9472 15.9633 88.3209 16.583 87.553 16.9707C84.7106 18.5791 80.03 18.1536 77.9451 16.1197C77.4166 15.5883 76.9987 14.9574 76.7153 14.2636C76.432 13.5698 76.2888 12.8268 76.2941 12.0774Z" fill="white"/>
<path d="M105.076 5.70337H103.944C103.944 5.55018 103.884 5.41402 103.867 5.28637C103.849 4.43795 103.539 3.62161 102.991 2.97402C102.443 2.32644 101.688 1.88694 100.854 1.72912C99.2812 1.27773 97.6029 1.3585 96.0803 1.9589C95.4784 2.13146 94.9485 2.49405 94.5697 2.99252C94.1909 3.491 93.9834 4.09862 93.9783 4.7247C93.9571 5.33955 94.1488 5.94288 94.5209 6.43281C94.893 6.92275 95.4227 7.26928 96.0207 7.4139C97.7227 7.94153 99.4673 8.26492 101.195 8.74149C101.755 8.87586 102.306 9.04352 102.846 9.24359C103.652 9.532 104.352 10.0569 104.855 10.7496C105.359 11.4424 105.641 12.2708 105.666 13.1266C105.691 13.9824 105.457 14.8258 104.995 15.5466C104.532 16.2673 103.864 16.8319 103.076 17.1665C101.875 17.7119 100.573 18.0004 99.2541 18.0136C97.9352 18.0268 96.6281 17.7643 95.4165 17.2431C94.4201 16.8134 93.5793 16.0888 93.0072 15.1667C92.4351 14.2447 92.1593 13.1695 92.2167 12.086H92.6932H93.323C93.5277 13.0734 93.9699 13.9961 94.6115 14.774C95.2531 15.552 96.0747 16.1619 97.0051 16.5508C97.9355 16.9397 98.9466 17.096 99.951 17.006C100.955 16.9161 101.923 16.5827 102.769 16.0347C103.285 15.7668 103.713 15.3566 104.003 14.8528C104.292 14.349 104.431 13.7727 104.403 13.1923C104.429 12.6208 104.267 12.0565 103.943 11.585C103.619 11.1135 103.15 10.7606 102.608 10.5797C101.28 10.0861 99.8673 9.82228 98.5142 9.38826C97.0982 8.99352 95.7131 8.49577 94.3697 7.89898C92.2422 6.85223 92.072 2.74183 94.4974 1.43127C95.7768 0.688272 97.2267 0.289148 98.7061 0.272744C100.185 0.256339 101.644 0.623212 102.939 1.33766C103.68 1.77996 104.277 2.42811 104.656 3.20321C105.035 3.97831 105.181 4.84693 105.076 5.70337Z" fill="white"/>
<path d="M30.9435 17.5324C30.498 17.7012 30.006 17.7008 29.5607 17.5315C29.1154 17.3621 28.7475 17.0355 28.5267 16.6133C27.1395 14.5369 25.6077 12.554 24.1354 10.5286L23.4972 9.67757C21.7441 12.0264 19.991 14.2816 18.3911 16.6219C18.1826 17.0253 17.8346 17.3393 17.4119 17.5052C16.9892 17.6712 16.5206 17.6778 16.0933 17.5239L22.6717 8.69891L16.5529 0.724892C16.9933 0.565855 17.4752 0.563674 17.917 0.718718C18.3589 0.873761 18.7337 1.17653 18.9783 1.57591C20.3995 3.65239 21.9738 5.63525 23.5397 7.73726C25.1141 5.65227 26.6714 3.6609 28.1267 1.60144C28.3363 1.20454 28.6845 0.898524 29.105 0.741611C29.5255 0.584699 29.989 0.587836 30.4074 0.750425L28.0331 3.89918C26.9693 5.30336 25.9225 6.71604 24.8162 8.08618C24.7271 8.166 24.6558 8.26372 24.607 8.37296C24.5581 8.48221 24.5329 8.60052 24.5329 8.72018C24.5329 8.83984 24.5581 8.95815 24.607 9.0674C24.6558 9.17665 24.7271 9.27437 24.8162 9.35419C26.8502 12.0519 28.8671 14.7581 30.9435 17.5324Z" fill="white"/>
<path d="M58.8738 0.639771V1.83119C58.0131 1.77474 57.1501 1.89939 56.3405 2.1971C55.531 2.49481 54.7928 2.95897 54.1737 3.55961C53.5546 4.16025 53.0684 4.88403 52.7463 5.68422C52.4243 6.48442 52.2736 7.34326 52.304 8.2053C52.304 11.008 52.304 13.8107 52.304 16.6133C52.304 16.9112 52.304 17.209 52.304 17.5665H51.087V0.707853H52.2785V4.16297C53.7507 1.64397 56.0229 0.707852 58.8738 0.639771Z" fill="white"/>
<path d="M0.33252 8.58825C0.511233 7.73723 0.621865 6.80963 0.868659 5.94159C2.34092 0.707846 8.34057 -1.47075 12.468 1.77162C14.8849 3.66938 15.4891 6.35859 15.37 9.3882H1.75371C1.53245 14.8007 5.43861 18.0686 10.4341 16.4006C11.2444 16.1107 11.9698 15.6236 12.5448 14.9833C13.1198 14.3429 13.5262 13.5694 13.7275 12.7327C13.9913 11.8817 14.4168 11.737 15.2253 11.9838C15.0921 13.0198 14.7258 14.0122 14.1539 14.8863C13.582 15.7604 12.8194 16.4934 11.9233 17.0303C10.4429 17.8399 8.74442 18.1606 7.07072 17.9466C5.39703 17.7326 3.83385 16.9949 2.60473 15.8389C1.38876 14.4717 0.653526 12.7442 0.511233 10.92C0.511233 10.6307 0.400601 10.3413 0.34103 10.069C0.335356 9.56408 0.33252 9.07049 0.33252 8.58825ZM1.77074 8.22231H14.0849C14.0083 4.29913 11.5319 1.51631 8.22994 1.49078C4.55356 1.43972 1.92392 4.16297 1.76223 8.20529L1.77074 8.22231Z" fill="white"/>
</svg>
