<svg width="591" height="160" viewBox="0 0 591 160" fill="none" xmlns="http://www.w3.org/2000/svg">
<path fill-rule="evenodd" clip-rule="evenodd" d="M298.536 0.000212912C298.127 0.00521291 297.713 0.102941 297.347 0.317291C296.618 0.745661 296.158 1.53238 296.158 2.37836V63.0209C296.158 63.6167 295.881 64.1492 295.365 64.4481C294.849 64.7476 294.219 64.7476 293.701 64.4481L283.792 58.7405C282.315 57.8892 280.512 57.8897 279.036 58.7405L239.479 81.5707C238 82.4238 237.101 84.065 237.101 85.7719V131.432C237.101 133.138 238.001 134.7 239.479 135.554L279.036 158.385C280.514 159.238 282.313 159.238 283.792 158.385L323.348 135.554C324.826 134.7 325.726 133.138 325.726 131.432V17.5985C325.726 15.8669 324.781 14.2418 323.269 13.3971L299.725 0.238036C299.356 0.0318064 298.946 -0.00435709 298.536 0.000212912ZM44.0749 56.9963C43.3206 57.0267 42.6119 57.1586 41.9346 57.5513L2.37814 80.3815C0.904203 81.2335 0 82.7855 0 84.5036L0.0791016 145.78C0.0791016 146.633 0.518811 147.424 1.26818 147.842C2.00267 148.281 2.91431 148.281 3.64632 147.842L27.1107 134.365C28.597 133.482 29.5681 131.946 29.5681 130.243V101.626C29.5681 99.9193 30.466 98.3526 31.9462 97.5041L41.9344 91.7174C42.6799 91.2864 43.4802 91.0833 44.3126 91.0833C45.1278 91.0833 45.9659 91.2862 46.6907 91.7174L56.6789 97.5041C58.1591 98.3526 59.0571 99.9193 59.0571 101.626V130.243C59.0571 131.946 60.0378 133.492 61.5145 134.365L84.9788 147.842C85.7157 148.281 86.6261 148.281 87.357 147.842C88.0853 147.424 88.546 146.633 88.546 145.78L88.6251 84.5036C88.6251 82.7855 87.731 81.2335 86.247 80.3815L46.6906 57.5513C46.0216 57.1586 45.3097 57.0272 44.5503 56.9963H44.0749ZM399.528 57.5513C398.702 57.5503 397.892 57.7593 397.15 58.1855L357.594 81.0156C356.116 81.869 355.215 83.4308 355.215 85.1378V130.798C355.215 132.515 356.182 134.072 357.673 134.92L396.912 157.275C398.361 158.102 400.131 158.164 401.589 157.353L425.371 144.115C426.125 143.696 426.636 142.915 426.639 142.054C426.644 141.193 426.195 140.421 425.45 139.993L385.656 117.163C384.91 116.738 384.387 115.877 384.387 115.022V100.753C384.387 99.9002 384.917 99.1184 385.656 98.6925L398.022 91.5578C398.758 91.1321 399.661 91.1321 400.4 91.5578L412.766 98.6925C413.505 99.1184 413.956 99.9002 413.956 100.753V112.01C413.956 112.864 414.406 113.645 415.145 114.071C415.887 114.498 416.784 114.5 417.523 114.071L441.225 100.278C442.696 99.4233 443.603 97.8574 443.603 96.1558V85.137C443.603 83.4351 442.699 81.8694 441.225 81.0148L401.906 58.1847C401.166 57.7555 400.355 57.5523 399.528 57.5513ZM281.255 91.638C281.461 91.638 281.704 91.6887 281.889 91.7953L295.445 99.6433C295.813 99.8564 296.079 100.249 296.079 100.674V116.369C296.079 116.796 295.815 117.188 295.445 117.4L281.889 125.248C281.52 125.458 281.069 125.458 280.7 125.248L267.145 117.4C266.776 117.187 266.511 116.796 266.511 116.369V100.674C266.511 100.249 266.777 99.8574 267.145 99.6433L280.7 91.7966C280.885 91.69 281.049 91.6393 281.255 91.6393V91.638Z" fill="white"/>
<path fill-rule="evenodd" clip-rule="evenodd" d="M518.039 56.4414C516.668 56.4414 515.334 56.725 514.155 57.3927L476.818 78.9545C474.402 80.3456 472.933 82.9752 472.933 85.7719V128.816C472.933 131.612 474.402 134.238 476.818 135.633L486.568 141.262C491.305 143.597 493.053 143.561 495.209 143.561C502.223 143.561 506.227 139.305 506.227 131.908V89.4183C506.227 88.8176 505.708 88.3877 505.118 88.3877H500.441C499.841 88.3877 499.331 88.8176 499.331 89.4183V131.908C499.331 135.187 495.916 138.484 490.373 135.713L480.227 129.768C479.868 129.572 479.592 129.228 479.592 128.816V85.7719C479.592 85.3632 479.865 84.9482 480.227 84.7415L517.484 63.2588C517.833 63.0584 518.248 63.0584 518.594 63.2588L555.851 84.7415C556.207 84.9545 556.486 85.3508 556.486 85.7719V128.816C556.486 129.228 556.279 129.649 555.931 129.847L518.594 151.329C518.274 151.52 517.833 151.52 517.484 151.329L507.892 145.622C507.607 145.455 507.217 145.467 506.941 145.622C504.293 147.123 503.795 147.297 501.313 148.159C500.701 148.372 499.772 148.703 501.63 149.744L514.155 157.116C515.347 157.806 516.675 158.147 518.039 158.147C519.421 158.147 520.731 157.806 521.923 157.116L559.26 135.633C561.676 134.228 563.144 131.612 563.144 128.816V85.7719C563.144 82.9752 561.676 80.3515 559.26 78.9545L521.923 57.3927C520.753 56.725 519.41 56.4414 518.039 56.4414ZM162.903 57.3133C162.079 57.3133 161.263 57.5213 160.525 57.9474L120.968 80.6985C119.489 81.5508 118.59 83.1944 118.59 84.8998V130.56C118.59 132.268 119.49 133.828 120.968 134.682L160.525 157.512C162.004 158.366 163.802 158.366 165.281 157.512L204.837 134.682C206.314 133.828 207.216 132.268 207.216 130.56V84.8998C207.216 83.1918 206.316 81.5508 204.837 80.6985L165.281 57.9474C164.543 57.5213 163.727 57.3133 162.903 57.3133ZM573.45 57.5518V58.6616H576.541V66.8264H577.81V58.6616H580.98V57.5518H573.45ZM582.09 57.5518V66.8264H583.279V61.3568C583.279 61.1335 583.289 60.7883 583.279 60.3264C583.264 59.8558 583.279 59.4456 583.279 59.2163V58.9778L585.895 66.8256H587.164L589.859 58.9778C589.859 59.4771 589.792 59.959 589.78 60.4047C589.775 60.8385 589.78 61.1642 589.78 61.356V66.8256H590.969V57.551H589.225L586.53 65.399L583.914 57.551L582.09 57.5518ZM528.027 87.1993C517.395 87.1993 511.063 91.724 511.063 99.2485C511.063 107.411 517.348 109.654 527.552 110.664C539.759 111.859 540.711 113.651 540.711 116.054C540.711 120.222 537.388 121.999 529.533 121.999C519.666 121.999 517.497 119.536 516.771 114.627C516.685 114.101 516.279 113.676 515.74 113.676H510.905C510.308 113.676 509.795 114.189 509.795 114.786C509.795 121.069 513.213 128.5 529.533 128.5C541.348 128.5 548.162 123.862 548.162 115.737C548.162 107.682 542.657 105.52 531.198 104.005C519.618 102.473 518.515 101.723 518.515 99.0109C518.515 96.7722 519.45 93.7787 528.027 93.7787C535.688 93.7787 538.52 95.4308 539.68 100.596C539.782 101.082 540.21 101.468 540.711 101.468H545.546C545.844 101.468 546.133 101.285 546.339 101.072C546.542 100.843 546.684 100.586 546.656 100.279C545.908 91.3833 539.975 87.1993 528.027 87.1993ZM399.449 98.0596C399.291 98.0596 399.116 98.0596 398.973 98.1382L391.363 102.577C391.078 102.74 390.888 103.042 390.888 103.37V112.09C390.888 112.418 391.078 112.719 391.363 112.883L398.973 117.242C399.259 117.407 399.563 117.407 399.845 117.242L407.455 112.883C407.737 112.72 407.931 112.418 407.931 112.09V103.37C407.931 103.042 407.738 102.741 407.455 102.577L399.845 98.1382C399.704 98.0545 399.607 98.0596 399.449 98.0596Z" fill="#83CD29"/>
</svg>
